<svg width="40" height="40" viewBox="0 0 40 40" fill="none" xmlns="http://www.w3.org/2000/svg">
  <circle cx="20" cy="20" r="18" fill="#4CAF50" stroke="#45a049" stroke-width="2"/>
  <path d="M12 16C12 13.5 13.5 12 16 12H24C26.5 12 28 13.5 28 16V24C28 26.5 26.5 28 24 28H16C13.5 28 12 26.5 12 24V16Z" fill="white"/>
  <circle cx="16" cy="18" r="2" fill="#4CAF50"/>
  <circle cx="24" cy="18" r="2" fill="#4CAF50"/>
  <path d="M16 22C16 20.5 17.5 19 20 19C22.5 19 24 20.5 24 22" stroke="#4CAF50" stroke-width="2" stroke-linecap="round"/>
  <path d="M8 8L32 32M32 8L8 32" stroke="#4CAF50" stroke-width="1" opacity="0.3"/>
</svg>

