<svg width="200" height="200" viewBox="0 0 200 200" fill="none" xmlns="http://www.w3.org/2000/svg">
<rect width="200" height="200" fill="#F8F9FA"/>
<defs>
  <linearGradient id="coordGradient" x1="0%" y1="0%" x2="100%" y2="100%">
    <stop offset="0%" style="stop-color:#E8F5E8;stop-opacity:1" />
    <stop offset="100%" style="stop-color:#C8E6C9;stop-opacity:1" />
  </linearGradient>
</defs>
<!-- Head -->
<circle cx="100" cy="70" r="25" fill="url(#coordGradient)" stroke="#4CAF50" stroke-width="2"/>
<!-- Eyes -->
<circle cx="92" cy="65" r="2" fill="black"/>
<circle cx="108" cy="65" r="2" fill="black"/>
<!-- Smile -->
<path d="M 90 75 Q 100 80 110 75" stroke="black" stroke-width="2" fill="none"/>
<!-- Body -->
<rect x="80" y="95" width="40" height="50" fill="url(#coordGradient)" stroke="#4CAF50" stroke-width="2" rx="5"/>
<!-- Arms -->
<rect x="70" y="105" width="15" height="30" fill="url(#coordGradient)" stroke="#4CAF50" stroke-width="2" rx="7"/>
<rect x="115" y="105" width="15" height="30" fill="url(#coordGradient)" stroke="#4CAF50" stroke-width="2" rx="7"/>
<!-- Legs -->
<rect x="85" y="145" width="12" height="30" fill="url(#coordGradient)" stroke="#4CAF50" stroke-width="2" rx="6"/>
<rect x="103" y="145" width="12" height="30" fill="url(#coordGradient)" stroke="#4CAF50" stroke-width="2" rx="6"/>
<!-- Clipboard -->
<rect x="120" y="100" width="15" height="20" fill="white" stroke="#4CAF50" stroke-width="2"/>
<rect x="122" y="105" width="11" height="1" fill="#4CAF50"/>
<rect x="122" y="108" width="11" height="1" fill="#4CAF50"/>
<rect x="122" y="111" width="11" height="1" fill="#4CAF50"/>
<rect x="122" y="114" width="8" height="1" fill="#4CAF50"/>
<!-- Clip -->
<rect x="118" y="102" width="3" height="6" fill="#4CAF50"/>
<!-- Heart -->
<path d="M 150 120 C 150 117, 147 114, 144 114 C 141 114, 138 117, 138 120 C 138 123, 144 129, 150 135 C 156 129, 162 123, 162 120 C 162 117, 159 114, 156 114 C 153 114, 150 117, 150 120 Z" fill="#FF6B6B"/>
</svg>